<!-- ?xml version="1.0" encoding="utf-8"?-->

<!--svg version="1.1" id="net_bet" xmlns="http://www.w3.org/2000/svg" xmlns:xlink="http://www.w3.org/1999/xlink" x="0px" y="0px" viewBox="0 0 180 50" style="enable-background:new 0 0 180 50;" xml:space="preserve"-->
<svg version="1.1" viewBox="0 0 180 50">


<style type="text/css">
	.st0{fill:url(#tRed_1_);}
	.st1{fill:url(#eRed_1_);}
	.st2{fill:url(#Bred_1_);}
	.st3{fill:url(#tWhite_1_);}
	.st4{fill:url(#eWhite_1_);}
	.st5{fill:url(#nWhite_1_);}
</style>
<linearGradient id="tRed_1_" gradientUnits="userSpaceOnUse" x1="166.5129" y1="9.983" x2="166.5129" y2="43.8216">
	<stop  offset="1.648350e-002" style="stop-color:#D61F27"/>
	<stop  offset="0.2646" style="stop-color:#CF1F26"/>
	<stop  offset="0.6318" style="stop-color:#BB1E24"/>
	<stop  offset="1" style="stop-color:#A01E22"/>
</linearGradient>
<path id="tRed" class="st0" d="M177.5,42.5c-1.6,0.4-3.3,0.6-5,0.8c-1.7,0.2-3.5,0.3-5.3,0.3c-3.2,0-5.5-0.6-6.8-1.7
	c-1.3-1.1-2-3.1-2-5.9V24.7h-3.7V19c1.5-1.3,3.1-2.8,4.6-4.3c1.5-1.5,3-3.1,4.5-4.8h6.4v5.5h8v9.4h-8v8.7c0,0.8,0.3,1.5,0.8,1.8
	c0.5,0.4,1.3,0.6,2.4,0.6c0.5,0,1.1-0.1,1.8-0.1c0.7-0.1,1.6-0.2,2.6-0.3L177.5,42.5z"/>
<linearGradient id="eRed_1_" gradientUnits="userSpaceOnUse" x1="140.5357" y1="14.301" x2="140.5357" y2="44.3681">
	<stop  offset="1.648350e-002" style="stop-color:#D61F27"/>
	<stop  offset="0.2646" style="stop-color:#CF1F26"/>
	<stop  offset="0.6318" style="stop-color:#BB1E24"/>
	<stop  offset="1" style="stop-color:#A01E22"/>
</linearGradient>
<path id="eRed" class="st1" d="M153.5,41.5c-2.3,0.7-4.5,1.3-6.7,1.6c-2.2,0.4-4.3,0.5-6.4,0.5c-5.1,0-8.9-1.2-11.3-3.6
	c-2.4-2.4-3.6-6.3-3.6-11.5c0-5,1.2-8.6,3.6-10.8c2.4-2.2,6.3-3.3,11.8-3.3c5.2,0,8.9,1,11.2,3.1c2.3,2.1,3.4,5.5,3.4,10.2
	c0,0.7,0,1.4-0.1,2.1c-0.1,0.8-0.1,1.5-0.2,2.4h-18.6c0.2,1.4,0.8,2.4,1.9,3c1.1,0.7,2.6,1,4.7,1c1.6,0,3.4-0.2,5.3-0.5
	c1.9-0.3,3.9-0.8,6-1.4L153.5,41.5z M136.5,26.3h9.7c0-1.5-0.5-2.7-1.2-3.4c-0.8-0.7-2-1.1-3.6-1.1c-1.6,0-2.8,0.4-3.6,1.1
	C137,23.7,136.6,24.8,136.5,26.3z"/>
<linearGradient id="Bred_1_" gradientUnits="userSpaceOnUse" x1="109.457" y1="10.0621" x2="109.457" y2="42.5975">
	<stop  offset="1.648350e-002" style="stop-color:#D61F27"/>
	<stop  offset="0.2646" style="stop-color:#CF1F26"/>
	<stop  offset="0.6318" style="stop-color:#BB1E24"/>
	<stop  offset="1" style="stop-color:#A01E22"/>
</linearGradient>
<path id="Bred" class="st2" d="M93.2,42.7V10.3h22.4c3.6,0,6.2,0.6,7.6,1.8c1.4,1.2,2.1,3.2,2.1,6.2c0,2.7-0.7,4.6-2,6
	c-1.3,1.3-3.4,2.1-6.2,2.3c3,0.1,5.1,0.8,6.5,2.1c1.4,1.2,2.1,3.1,2.1,5.7c0,3-0.8,5.2-2.5,6.5c-1.7,1.3-4.5,2-8.4,2H93.2z
	 M105.1,23.7h5.8c1,0,1.8-0.2,2.4-0.7s0.8-1.1,0.8-2.1c0-0.8-0.2-1.4-0.7-1.8c-0.5-0.4-1.2-0.6-2.3-0.6h-6V23.7z M105.1,35.1h5.7
	c1.4,0,2.4-0.2,3-0.6c0.6-0.4,0.9-1.1,0.9-2.1c0-0.8-0.3-1.5-0.9-1.9c-0.6-0.4-1.4-0.6-2.6-0.6h-6.1V35.1z"/>
<linearGradient id="tWhite_1_" gradientUnits="userSpaceOnUse" x1="77.1493" y1="9.8807" x2="77.1493" y2="43.3976">
	<stop  offset="1.648350e-002" style="stop-color:#FFFFFF"/>
	<stop  offset="0.3019" style="stop-color:#F8F8F8"/>
	<stop  offset="0.7234" style="stop-color:#E4E4E4"/>
	<stop  offset="1" style="stop-color:#D3D4D4"/>
</linearGradient>
<path id="tWhite" class="st3" d="M88.2,42.5c-1.6,0.4-3.3,0.6-5,0.8c-1.7,0.2-3.5,0.3-5.3,0.3c-3.2,0-5.5-0.6-6.8-1.7
	c-1.3-1.1-2-3.1-2-5.9V24.7h-3.7V19c1.5-1.3,3.1-2.8,4.6-4.3c1.5-1.5,3-3.1,4.5-4.8h6.4v5.5h8v9.4h-8v8.7c0,0.8,0.3,1.5,0.8,1.8
	c0.5,0.4,1.3,0.6,2.4,0.6c0.5,0,1.1-0.1,1.8-0.1c0.7-0.1,1.6-0.2,2.6-0.3L88.2,42.5z"/>
<linearGradient id="eWhite_1_" gradientUnits="userSpaceOnUse" x1="51.0412" y1="14.3007" x2="51.0412" y2="44.3678">
	<stop  offset="1.648350e-002" style="stop-color:#FFFFFF"/>
	<stop  offset="0.3019" style="stop-color:#F8F8F8"/>
	<stop  offset="0.7234" style="stop-color:#E4E4E4"/>
	<stop  offset="1" style="stop-color:#D3D4D4"/>
</linearGradient>
<path id="eWhite" class="st4" d="M64,41.5c-2.3,0.7-4.5,1.3-6.7,1.6c-2.2,0.4-4.3,0.5-6.4,0.5c-5.1,0-8.9-1.2-11.3-3.6
	c-2.4-2.4-3.6-6.3-3.6-11.5c0-5,1.2-8.6,3.6-10.8c2.4-2.2,6.3-3.3,11.8-3.3c5.2,0,8.9,1,11.2,3.1c2.3,2.1,3.4,5.5,3.4,10.2
	c0,0.7,0,1.4-0.1,2.1c0,0.8-0.1,1.5-0.2,2.4H47.2c0.2,1.4,0.8,2.4,1.9,3c1.1,0.7,2.6,1,4.7,1c1.6,0,3.4-0.2,5.3-0.5
	c1.9-0.3,3.9-0.8,6-1.4L64,41.5z M47,26.3h9.7c0-1.5-0.5-2.7-1.2-3.4c-0.8-0.7-2-1.1-3.6-1.1c-1.6,0-2.8,0.4-3.6,1.1
	C47.5,23.7,47.1,24.8,47,26.3z"/>
<linearGradient id="nWhite_1_" gradientUnits="userSpaceOnUse" x1="18.8845" y1="10.3056" x2="18.8845" y2="42.6701">
	<stop  offset="1.648350e-002" style="stop-color:#FFFFFF"/>
	<stop  offset="0.3019" style="stop-color:#F8F8F8"/>
	<stop  offset="0.7234" style="stop-color:#E4E4E4"/>
	<stop  offset="1" style="stop-color:#D3D4D4"/>
</linearGradient>
<path id="nWhite" class="st5" d="M13.3,22.3c0.2,1.6,0.4,3.4,0.5,5.3c0.1,1.9,0.2,4.1,0.2,6.4v8.6H3V10.3h14l3.7,8.3
	c0.5,1,1,2.3,1.5,3.7c0.5,1.4,1.1,3.1,1.8,5.1h0.4c-0.2-1.6-0.4-3.2-0.5-5.1c-0.1-1.8-0.2-3.9-0.2-6.2v-5.9h11v32.4H22.4l-5.2-11.5
	c-0.7-1.5-1.3-3-1.9-4.5c-0.6-1.5-1.1-2.9-1.5-4.4H13.3z"/>
</svg>
